REM DIRINDEX 1\2\5,1\2\6,1\2\7,1\2\8,1\3\9,1\3\10,1\3\11,1\4\12,1\4\13,1\4\14,1\4\15,1\4\16
REM DIRNAME cjc034,folder01,folder02,folder03,folder04,folder05,folder06,folder07,folder08,folder09,folder10,folder11,folder12,folder13,folder14,folder15
TITLE ""
FILE "1200_sec03_0951_0959.mp3" MP3
  TRACK 01 AUDIO
    TITLE "0:"
    INDEX 01 00:00:00
  TRACK 02 AUDIO
    TITLE "16:cjc034_07482"
    INDEX 01 00:00:17
  TRACK 03 AUDIO
    TITLE "0:"
    INDEX 01 00:05:20
  TRACK 04 AUDIO
    TITLE "12:cjc034_07483"
    INDEX 01 00:06:22
  TRACK 05 AUDIO
    TITLE "0:"
    INDEX 01 00:07:47
  TRACK 06 AUDIO
    TITLE "13:cjc034_07484"
    INDEX 01 00:08:03
  TRACK 07 AUDIO
    TITLE "0:"
    INDEX 01 00:09:20
  TRACK 08 AUDIO
    TITLE "14:cjc034_07485"
    INDEX 01 00:09:53
  TRACK 09 AUDIO
    TITLE "0:"
    INDEX 01 00:11:03
  TRACK 10 AUDIO
    TITLE "15:cjc034_07486"
    INDEX 01 00:11:35
  TRACK 11 AUDIO
    TITLE "0:"
    INDEX 01 00:15:17
  TRACK 12 AUDIO
    TITLE "12:cjc034_07487"
    INDEX 01 00:16:53
  TRACK 13 AUDIO
    TITLE "0:"
    INDEX 01 00:17:69
  TRACK 14 AUDIO
    TITLE "13:cjc034_07488"
    INDEX 01 00:18:25
  TRACK 15 AUDIO
    TITLE "0:"
    INDEX 01 00:19:38
  TRACK 16 AUDIO
    TITLE "14:cjc034_07489"
    INDEX 01 00:19:71
  TRACK 17 AUDIO
    TITLE "0:"
    INDEX 01 00:21:11
  TRACK 18 AUDIO
    TITLE "15:cjc034_07490"
    INDEX 01 00:21:45
  TRACK 19 AUDIO
    TITLE "0:"
    INDEX 01 00:26:15
  TRACK 20 AUDIO
    TITLE "12:cjc034_07491"
    INDEX 01 00:27:51
  TRACK 21 AUDIO
    TITLE "0:"
    INDEX 01 00:28:72
  TRACK 22 AUDIO
    TITLE "13:cjc034_07492"
    INDEX 01 00:29:31
  TRACK 23 AUDIO
    TITLE "0:"
    INDEX 01 00:30:71
  TRACK 24 AUDIO
    TITLE "14:cjc034_07493"
    INDEX 01 00:31:31
  TRACK 25 AUDIO
    TITLE "0:"
    INDEX 01 00:32:50
  TRACK 26 AUDIO
    TITLE "15:cjc034_07494"
    INDEX 01 00:33:09
  TRACK 27 AUDIO
    TITLE "0:"
    INDEX 01 00:37:54
  TRACK 28 AUDIO
    TITLE "12:cjc034_07495"
    INDEX 01 00:39:11
  TRACK 29 AUDIO
    TITLE "0:"
    INDEX 01 00:40:32
  TRACK 30 AUDIO
    TITLE "13:cjc034_07496"
    INDEX 01 00:40:68
  TRACK 31 AUDIO
    TITLE "0:"
    INDEX 01 00:45:33
  TRACK 32 AUDIO
    TITLE "14:cjc034_07497"
    INDEX 01 00:45:67
  TRACK 33 AUDIO
    TITLE "0:"
    INDEX 01 00:47:11
  TRACK 34 AUDIO
    TITLE "15:cjc034_07498"
    INDEX 01 00:47:46
  TRACK 35 AUDIO
    TITLE "0:"
    INDEX 01 00:51:03
  TRACK 36 AUDIO
    TITLE "12:cjc034_07499"
    INDEX 01 00:52:36
  TRACK 37 AUDIO
    TITLE "0:"
    INDEX 01 00:53:57
  TRACK 38 AUDIO
    TITLE "13:cjc034_07500"
    INDEX 01 00:54:15
  TRACK 39 AUDIO
    TITLE "0:"
    INDEX 01 00:56:51
  TRACK 40 AUDIO
    TITLE "14:cjc034_07501"
    INDEX 01 00:57:11
  TRACK 41 AUDIO
    TITLE "0:"
    INDEX 01 00:58:32
  TRACK 42 AUDIO
    TITLE "15:cjc034_07502"
    INDEX 01 00:58:66
  TRACK 43 AUDIO
    TITLE "0:"
    INDEX 01 01:02:50
  TRACK 44 AUDIO
    TITLE "12:cjc034_07503"
    INDEX 01 01:04:13
  TRACK 45 AUDIO
    TITLE "0:"
    INDEX 01 01:05:32
  TRACK 46 AUDIO
    TITLE "13:cjc034_07504"
    INDEX 01 01:05:68
  TRACK 47 AUDIO
    TITLE "0:"
    INDEX 01 01:08:27
  TRACK 48 AUDIO
    TITLE "14:cjc034_07505"
    INDEX 01 01:08:62
  TRACK 49 AUDIO
    TITLE "0:"
    INDEX 01 01:10:06
  TRACK 50 AUDIO
    TITLE "15:cjc034_07506"
    INDEX 01 01:10:41
  TRACK 51 AUDIO
    TITLE "0:"
    INDEX 01 01:14:14
  TRACK 52 AUDIO
    TITLE "12:cjc034_07507"
    INDEX 01 01:15:48
  TRACK 53 AUDIO
    TITLE "0:"
    INDEX 01 01:16:69
  TRACK 54 AUDIO
    TITLE "13:cjc034_07508"
    INDEX 01 01:17:26
  TRACK 55 AUDIO
    TITLE "0:"
    INDEX 01 01:18:41
  TRACK 56 AUDIO
    TITLE "14:cjc034_07509"
    INDEX 01 01:18:72
  TRACK 57 AUDIO
    TITLE "0:"
    INDEX 01 01:20:18
  TRACK 58 AUDIO
    TITLE "15:cjc034_07510"
    INDEX 01 01:20:49
  TRACK 59 AUDIO
    TITLE "0:"
    INDEX 01 01:24:36
  TRACK 60 AUDIO
    TITLE "12:cjc034_07511"
    INDEX 01 01:25:72
  TRACK 61 AUDIO
    TITLE "0:"
    INDEX 01 01:27:08
  TRACK 62 AUDIO
    TITLE "13:cjc034_07512"
    INDEX 01 01:27:42
  TRACK 63 AUDIO
    TITLE "0:"
    INDEX 01 01:29:60
  TRACK 64 AUDIO
    TITLE "14:cjc034_07513"
    INDEX 01 01:30:18
  TRACK 65 AUDIO
    TITLE "0:"
    INDEX 01 01:31:32
  TRACK 66 AUDIO
    TITLE "15:cjc034_07514"
    INDEX 01 01:31:65
  TRACK 67 AUDIO
    TITLE "0:"
    INDEX 01 01:35:71
  TRACK 68 AUDIO
    TITLE "12:cjc034_07515"
    INDEX 01 01:37:28
  TRACK 69 AUDIO
    TITLE "0:"
    INDEX 01 01:38:47
  TRACK 70 AUDIO
    TITLE "13:cjc034_07516"
    INDEX 01 01:39:08
  TRACK 71 AUDIO
    TITLE "0:"
    INDEX 01 01:40:23
  TRACK 72 AUDIO
    TITLE "14:cjc034_07517"
    INDEX 01 01:40:56
  TRACK 73 AUDIO
    TITLE "0:"
    INDEX 01 01:42:02
  TRACK 74 AUDIO
    TITLE "15:cjc034_07518"
    INDEX 01 01:42:35
  TRACK 75 AUDIO
    TITLE "0:"
    INDEX 01 01:46:59
